<svg width="1080" height="1080" viewBox="0 0 1080 1080" fill="none" xmlns="http://www.w3.org/2000/svg">
<rect width="1080" height="1080" fill="white"/>
<circle cx="292" cy="502" r="145" fill="white" stroke="black" stroke-width="10"/>
<path d="M896.553 330.518C898.496 328.555 898.48 325.389 896.517 323.447L864.537 291.788C862.574 289.846 859.409 289.862 857.466 291.824C855.523 293.787 855.539 296.952 857.502 298.895L885.929 327.036L857.788 355.463C855.845 357.425 855.861 360.591 857.824 362.534C859.786 364.477 862.952 364.46 864.895 362.498L896.553 330.518ZM482.025 334.08L893.025 332L892.974 322L481.975 324.08L482.025 334.08Z" fill="black"/>
<path d="M80.4698 691.314C78.5142 693.26 78.5095 696.426 80.4592 698.385L112.231 730.312C114.181 732.272 117.347 732.282 119.302 730.336C121.258 728.39 121.263 725.224 119.313 723.265L91.071 694.885L119.397 666.697C121.353 664.751 121.357 661.585 119.408 659.626C117.458 657.666 114.292 657.656 112.337 659.602L80.4698 691.314ZM1057.53 701.691C1059.49 699.745 1059.49 696.579 1057.54 694.62L1025.77 662.693C1023.82 660.733 1020.65 660.723 1018.7 662.669C1016.74 664.615 1016.74 667.78 1018.69 669.74L1046.93 698.12L1018.6 726.308C1016.65 728.254 1016.64 731.42 1018.59 733.379C1020.54 735.338 1023.71 735.349 1025.66 733.403L1057.53 701.691ZM83.9926 699.861L1053.99 703.144L1054.01 693.144L84.0074 689.861L83.9926 699.861Z" fill="black"/>
<path d="M589.875 267.719L600.188 233.5H610.625L594.781 279H585L569.219 233.5H579.625L589.875 267.719Z" fill="black"/>
<path d="M638.326 252.584L638.546 255.538C640.418 253.243 642.949 252.096 646.139 252.096C649.54 252.096 651.876 253.438 653.146 256.124C655.001 253.438 657.646 252.096 661.08 252.096C663.945 252.096 666.077 252.934 667.477 254.61C668.876 256.271 669.576 258.777 669.576 262.13V279H662.496V262.154C662.496 260.657 662.203 259.566 661.617 258.883C661.031 258.183 659.998 257.833 658.517 257.833C656.401 257.833 654.936 258.842 654.122 260.86L654.146 279H647.091V262.179C647.091 260.649 646.79 259.542 646.188 258.858C645.585 258.175 644.56 257.833 643.111 257.833C641.109 257.833 639.661 258.663 638.766 260.323V279H631.71V252.584H638.326ZM677.242 282.052H671.993L685.079 243.453H690.328L677.242 282.052ZM708.028 271.7C708.028 270.838 707.597 270.162 706.734 269.674C705.888 269.169 704.521 268.722 702.633 268.331C696.35 267.013 693.209 264.343 693.209 260.323C693.209 257.979 694.177 256.026 696.114 254.464C698.067 252.885 700.615 252.096 703.756 252.096C707.109 252.096 709.786 252.885 711.788 254.464C713.806 256.043 714.815 258.093 714.815 260.616H707.76C707.76 259.607 707.434 258.777 706.783 258.126C706.132 257.459 705.115 257.125 703.731 257.125C702.543 257.125 701.624 257.394 700.973 257.931C700.322 258.468 699.996 259.151 699.996 259.981C699.996 260.763 700.362 261.397 701.095 261.886C701.843 262.358 703.097 262.773 704.854 263.131C706.612 263.473 708.093 263.863 709.298 264.303C713.025 265.67 714.889 268.038 714.889 271.407C714.889 273.816 713.855 275.769 711.788 277.267C709.721 278.748 707.052 279.488 703.78 279.488C701.567 279.488 699.597 279.098 697.872 278.316C696.163 277.519 694.82 276.437 693.844 275.069C692.867 273.686 692.379 272.197 692.379 270.602H699.068C699.133 271.855 699.597 272.815 700.46 273.482C701.323 274.15 702.478 274.483 703.927 274.483C705.278 274.483 706.295 274.231 706.979 273.727C707.678 273.206 708.028 272.53 708.028 271.7Z" fill="black"/>
<path d="M586.606 794.674C586.606 793.29 586.118 792.232 585.142 791.5C584.165 790.751 582.407 789.97 579.868 789.156C577.329 788.326 575.319 787.512 573.838 786.715C569.801 784.534 567.783 781.596 567.783 777.901C567.783 775.981 568.32 774.272 569.395 772.774C570.485 771.261 572.039 770.081 574.058 769.234C576.092 768.388 578.371 767.965 580.894 767.965C583.433 767.965 585.695 768.429 587.681 769.356C589.666 770.268 591.204 771.562 592.295 773.238C593.402 774.915 593.955 776.819 593.955 778.951H586.631C586.631 777.324 586.118 776.062 585.093 775.167C584.067 774.256 582.627 773.8 580.771 773.8C578.981 773.8 577.59 774.182 576.597 774.947C575.604 775.696 575.107 776.689 575.107 777.926C575.107 779.081 575.685 780.05 576.841 780.831C578.013 781.612 579.73 782.345 581.992 783.028C586.159 784.282 589.194 785.836 591.099 787.691C593.003 789.547 593.955 791.858 593.955 794.625C593.955 797.701 592.791 800.118 590.464 801.876C588.136 803.618 585.003 804.488 581.064 804.488C578.33 804.488 575.84 803.992 573.594 802.999C571.348 801.99 569.631 800.615 568.442 798.873C567.271 797.132 566.685 795.113 566.685 792.818H574.033C574.033 796.741 576.377 798.702 581.064 798.702C582.806 798.702 584.165 798.352 585.142 797.652C586.118 796.936 586.606 795.943 586.606 794.674Z" fill="black"/>
</svg>
