<svg width="1080" height="1080" viewBox="0 0 1080 1080" fill="none" xmlns="http://www.w3.org/2000/svg">
<rect width="1080" height="1080" fill="white"/>
<path d="M60.4706 699.75C58.5146 701.697 58.5091 704.863 60.4584 706.821L92.223 738.734C94.1722 740.692 97.338 740.701 99.294 738.754C101.25 736.807 101.256 733.641 99.3063 731.683L71.071 703.317L99.4041 675.115C101.36 673.168 101.366 670.002 99.4163 668.044C97.4671 666.085 94.3013 666.076 92.3453 668.023L60.4706 699.75ZM1019.53 709.615C1021.49 707.668 1021.49 704.502 1019.54 702.544L987.777 670.632C985.828 668.673 982.662 668.664 980.706 670.611C978.75 672.558 978.745 675.724 980.694 677.682L1008.93 706.049L980.596 734.25C978.64 736.197 978.635 739.363 980.584 741.322C982.533 743.28 985.699 743.289 987.655 741.342L1019.53 709.615ZM63.9914 708.296L1015.99 711.069L1016.01 701.069L64.0086 698.296L63.9914 708.296Z" fill="black"/>
<circle cx="225" cy="522" r="140" fill="white" stroke="black" stroke-width="10"/>
<circle cx="866" cy="522" r="140" fill="white" stroke="black" stroke-width="10"/>
<path d="M425.475 335.475C426.842 334.108 426.842 331.892 425.475 330.525L403.201 308.251C401.834 306.884 399.618 306.884 398.251 308.251C396.884 309.618 396.884 311.834 398.251 313.201L418.05 333L398.251 352.799C396.884 354.166 396.884 356.382 398.251 357.749C399.618 359.116 401.834 359.116 403.201 357.749L425.475 335.475ZM225 336.5H423L423 329.5H225L225 336.5Z" fill="black"/>
<path d="M660.525 330.525C659.158 331.892 659.158 334.108 660.525 335.475L682.799 357.749C684.166 359.116 686.382 359.116 687.749 357.749C689.116 356.382 689.116 354.166 687.749 352.799L667.95 333L687.749 313.201C689.116 311.834 689.116 309.618 687.749 308.251C686.382 306.884 684.166 306.884 682.799 308.251L660.525 330.525ZM861 329.5L663 329.5L663 336.5L861 336.5L861 329.5Z" fill="black"/>
<path d="M303.326 248.584L303.546 251.538C305.418 249.243 307.949 248.096 311.139 248.096C314.54 248.096 316.876 249.438 318.146 252.124C320.001 249.438 322.646 248.096 326.08 248.096C328.945 248.096 331.077 248.934 332.477 250.61C333.876 252.271 334.576 254.777 334.576 258.13V275H327.496V258.154C327.496 256.657 327.203 255.566 326.617 254.883C326.031 254.183 324.998 253.833 323.517 253.833C321.401 253.833 319.936 254.842 319.122 256.86L319.146 275H312.091V258.179C312.091 256.649 311.79 255.542 311.188 254.858C310.585 254.175 309.56 253.833 308.111 253.833C306.109 253.833 304.661 254.663 303.766 256.323V275H296.71V248.584H303.326ZM342.242 278.052H336.993L350.079 239.453H355.328L342.242 278.052ZM373.028 267.7C373.028 266.838 372.597 266.162 371.734 265.674C370.888 265.169 369.521 264.722 367.633 264.331C361.35 263.013 358.209 260.343 358.209 256.323C358.209 253.979 359.177 252.026 361.114 250.464C363.067 248.885 365.615 248.096 368.756 248.096C372.109 248.096 374.786 248.885 376.788 250.464C378.806 252.043 379.815 254.093 379.815 256.616H372.76C372.76 255.607 372.434 254.777 371.783 254.126C371.132 253.459 370.115 253.125 368.731 253.125C367.543 253.125 366.624 253.394 365.973 253.931C365.322 254.468 364.996 255.151 364.996 255.981C364.996 256.763 365.362 257.397 366.095 257.886C366.843 258.358 368.097 258.773 369.854 259.131C371.612 259.473 373.093 259.863 374.298 260.303C378.025 261.67 379.889 264.038 379.889 267.407C379.889 269.816 378.855 271.769 376.788 273.267C374.721 274.748 372.052 275.488 368.78 275.488C366.567 275.488 364.597 275.098 362.872 274.316C361.163 273.519 359.82 272.437 358.844 271.069C357.867 269.686 357.379 268.197 357.379 266.602H364.068C364.133 267.855 364.597 268.815 365.46 269.482C366.323 270.15 367.478 270.483 368.927 270.483C370.278 270.483 371.295 270.231 371.979 269.727C372.678 269.206 373.028 268.53 373.028 267.7Z" fill="black"/>
<path d="M808.326 248.584L808.546 251.538C810.418 249.243 812.949 248.096 816.139 248.096C819.54 248.096 821.876 249.438 823.146 252.124C825.001 249.438 827.646 248.096 831.08 248.096C833.945 248.096 836.077 248.934 837.477 250.61C838.876 252.271 839.576 254.777 839.576 258.13V275H832.496V258.154C832.496 256.657 832.203 255.566 831.617 254.883C831.031 254.183 829.998 253.833 828.517 253.833C826.401 253.833 824.936 254.842 824.122 256.86L824.146 275H817.091V258.179C817.091 256.649 816.79 255.542 816.188 254.858C815.585 254.175 814.56 253.833 813.111 253.833C811.109 253.833 809.661 254.663 808.766 256.323V275H801.71V248.584H808.326ZM847.242 278.052H841.993L855.079 239.453H860.328L847.242 278.052ZM878.028 267.7C878.028 266.838 877.597 266.162 876.734 265.674C875.888 265.169 874.521 264.722 872.633 264.331C866.35 263.013 863.209 260.343 863.209 256.323C863.209 253.979 864.177 252.026 866.114 250.464C868.067 248.885 870.615 248.096 873.756 248.096C877.109 248.096 879.786 248.885 881.788 250.464C883.806 252.043 884.815 254.093 884.815 256.616H877.76C877.76 255.607 877.434 254.777 876.783 254.126C876.132 253.459 875.115 253.125 873.731 253.125C872.543 253.125 871.624 253.394 870.973 253.931C870.322 254.468 869.996 255.151 869.996 255.981C869.996 256.763 870.362 257.397 871.095 257.886C871.843 258.358 873.097 258.773 874.854 259.131C876.612 259.473 878.093 259.863 879.298 260.303C883.025 261.67 884.889 264.038 884.889 267.407C884.889 269.816 883.855 271.769 881.788 273.267C879.721 274.748 877.052 275.488 873.78 275.488C871.567 275.488 869.597 275.098 867.872 274.316C866.163 273.519 864.82 272.437 863.844 271.069C862.867 269.686 862.379 268.197 862.379 266.602H869.068C869.133 267.855 869.597 268.815 870.46 269.482C871.323 270.15 872.478 270.483 873.927 270.483C875.278 270.483 876.295 270.231 876.979 269.727C877.678 269.206 878.028 268.53 878.028 267.7Z" fill="black"/>
<path d="M232.875 263.719L243.188 229.5H253.625L237.781 275H228L212.219 229.5H222.625L232.875 263.719ZM275.5 275C275.083 274.188 274.781 273.177 274.594 271.969C272.406 274.406 269.562 275.625 266.062 275.625C262.75 275.625 260 274.667 257.812 272.75C255.646 270.833 254.562 268.417 254.562 265.5C254.562 261.917 255.885 259.167 258.531 257.25C261.198 255.333 265.042 254.365 270.062 254.344H274.219V252.406C274.219 250.844 273.812 249.594 273 248.656C272.208 247.719 270.948 247.25 269.219 247.25C267.698 247.25 266.5 247.615 265.625 248.344C264.771 249.073 264.344 250.073 264.344 251.344H255.312C255.312 249.385 255.917 247.573 257.125 245.906C258.333 244.24 260.042 242.938 262.25 242C264.458 241.042 266.938 240.562 269.688 240.562C273.854 240.562 277.156 241.615 279.594 243.719C282.052 245.802 283.281 248.74 283.281 252.531V267.188C283.302 270.396 283.75 272.823 284.625 274.469V275H275.5ZM268.031 268.719C269.365 268.719 270.594 268.427 271.719 267.844C272.844 267.24 273.677 266.438 274.219 265.438V259.625H270.844C266.323 259.625 263.917 261.188 263.625 264.312L263.594 264.844C263.594 265.969 263.99 266.896 264.781 267.625C265.573 268.354 266.656 268.719 268.031 268.719Z" fill="black"/>
<path d="M730.875 263.719L741.188 229.5H751.625L735.781 275H726L710.219 229.5H720.625L730.875 263.719ZM785.812 258.406C785.812 263.823 784.656 268.052 782.344 271.094C780.031 274.115 776.802 275.625 772.656 275.625C768.99 275.625 766.062 274.219 763.875 271.406L763.469 275H755.344V227H764.375V244.219C766.458 241.781 769.198 240.562 772.594 240.562C776.719 240.562 779.948 242.083 782.281 245.125C784.635 248.146 785.812 252.406 785.812 257.906V258.406ZM776.781 257.75C776.781 254.333 776.24 251.844 775.156 250.281C774.073 248.698 772.458 247.906 770.312 247.906C767.438 247.906 765.458 249.083 764.375 251.438V264.781C765.479 267.156 767.479 268.344 770.375 268.344C773.292 268.344 775.208 266.906 776.125 264.031C776.562 262.656 776.781 260.562 776.781 257.75Z" fill="black"/>
<path d="M543.656 797.062C543.656 795.292 543.031 793.938 541.781 793C540.531 792.042 538.281 791.042 535.031 790C531.781 788.938 529.208 787.896 527.312 786.875C522.146 784.083 519.562 780.323 519.562 775.594C519.562 773.135 520.25 770.948 521.625 769.031C523.021 767.094 525.01 765.583 527.594 764.5C530.198 763.417 533.115 762.875 536.344 762.875C539.594 762.875 542.49 763.469 545.031 764.656C547.573 765.823 549.542 767.479 550.938 769.625C552.354 771.771 553.062 774.208 553.062 776.938H543.688C543.688 774.854 543.031 773.24 541.719 772.094C540.406 770.927 538.562 770.344 536.188 770.344C533.896 770.344 532.115 770.833 530.844 771.812C529.573 772.771 528.938 774.042 528.938 775.625C528.938 777.104 529.677 778.344 531.156 779.344C532.656 780.344 534.854 781.281 537.75 782.156C543.083 783.76 546.969 785.75 549.406 788.125C551.844 790.5 553.062 793.458 553.062 797C553.062 800.938 551.573 804.031 548.594 806.281C545.615 808.51 541.604 809.625 536.562 809.625C533.062 809.625 529.875 808.99 527 807.719C524.125 806.427 521.927 804.667 520.406 802.438C518.906 800.208 518.156 797.625 518.156 794.688H527.562C527.562 799.708 530.562 802.219 536.562 802.219C538.792 802.219 540.531 801.771 541.781 800.875C543.031 799.958 543.656 798.688 543.656 797.062Z" fill="black"/>
</svg>
