<svg width="1080" height="1080" viewBox="0 0 1080 1080" fill="none" xmlns="http://www.w3.org/2000/svg">
<rect width="1080" height="1080" fill="white"/>
<rect x="195" y="195" width="690" height="690" fill="white" stroke="black" stroke-width="10"/>
<path d="M540 140V240" stroke="black" stroke-width="10"/>
<path d="M540 840V940" stroke="black" stroke-width="10"/>
<path d="M940 540H840" stroke="black" stroke-width="10"/>
<path d="M240 540H140" stroke="black" stroke-width="10"/>
<path d="M1005.98 560.6C1002.63 560.6 999.35 560.2 996.15 559.4C992.95 558.55 990.4 557.5 988.5 556.25L992.4 547.85C994.2 549 996.375 549.95 998.925 550.7C1001.48 551.4 1003.98 551.75 1006.43 551.75C1011.38 551.75 1013.85 550.525 1013.85 548.075C1013.85 546.925 1013.18 546.1 1011.83 545.6C1010.48 545.1 1008.4 544.675 1005.6 544.325C1002.3 543.825 999.575 543.25 997.425 542.6C995.275 541.95 993.4 540.8 991.8 539.15C990.25 537.5 989.475 535.15 989.475 532.1C989.475 529.55 990.2 527.3 991.65 525.35C993.15 523.35 995.3 521.8 998.1 520.7C1000.95 519.6 1004.3 519.05 1008.15 519.05C1011 519.05 1013.83 519.375 1016.63 520.025C1019.48 520.625 1021.83 521.475 1023.68 522.575L1019.78 530.9C1016.23 528.9 1012.35 527.9 1008.15 527.9C1005.65 527.9 1003.78 528.25 1002.53 528.95C1001.28 529.65 1000.65 530.55 1000.65 531.65C1000.65 532.9 1001.33 533.775 1002.68 534.275C1004.03 534.775 1006.18 535.25 1009.13 535.7C1012.43 536.25 1015.13 536.85 1017.23 537.5C1019.33 538.1 1021.15 539.225 1022.7 540.875C1024.25 542.525 1025.03 544.825 1025.03 547.775C1025.03 550.275 1024.28 552.5 1022.78 554.45C1021.28 556.4 1019.08 557.925 1016.18 559.025C1013.33 560.075 1009.93 560.6 1005.98 560.6Z" fill="black"/>
</svg>
